<?xml version="1.0" encoding="utf-8"?>
<!-- Generator: Adobe Illustrator 21.1.0, SVG Export Plug-In . SVG Version: 6.00 Build 0)  -->
<svg version="1.1" id="reflection" xmlns="http://www.w3.org/2000/svg" xmlns:xlink="http://www.w3.org/1999/xlink" x="0px" y="0px"
	 viewBox="0 0 500 500" style="enable-background:new 0 0 500 500;" xml:space="preserve">
<style type="text/css">
	.st0{fill:#FFFFFF;}
</style>
<g>
	<path class="st0" d="M173.7,267c-2.9,0-5.8-0.8-8.4-2.4c-7.7-4.7-10.1-14.7-5.4-22.4c42.9-70.4,109.3-123.8,187-150.4
		c8.5-2.9,17.7,1.6,20.7,10.1s-1.6,17.7-10.1,20.7c-70.5,24.1-130.8,72.6-169.7,136.5C184.5,264.2,179.1,267,173.7,267z"/>
</g>
<g>
	<path class="st0" d="M127.4,399.9c-0.7,0-1.3,0-2-0.1c-8.9-1.1-15.3-9.2-14.1-18.1c2.6-21.2,7.2-42.2,13.6-62.5
		c2.7-8.6,11.8-13.3,20.4-10.6c8.6,2.7,13.3,11.8,10.6,20.4c-5.8,18.4-10,37.5-12.3,56.7C142.5,393.9,135.5,399.9,127.4,399.9z"/>
</g>
</svg>
