<svg xmlns="http://www.w3.org/2000/svg" viewBox="0 0 720 1080"><defs><style>.cls-1{fill:#ffe98a;}.cls-2{fill:#ff1010;}.cls-3{fill:#0e69a1;}.cls-22,.cls-4{fill:#fff;}.cls-5{fill:#f7f7f7;}.cls-6{fill:#828282;}.cls-7{fill:#6c2b3b;}.cls-8{fill:#96062b;}.cls-9{fill:#f2542d;}.cls-10{fill:#232122;}.cls-11{fill:#574b4f;}.cls-12{fill:#d9dadb;}.cls-13{fill:#c1527f;}.cls-14{fill:#c2446b;}.cls-15{fill:#cc5681;}.cls-16{fill:#bebbb9;}.cls-17{fill:#aeacad;}.cls-18{fill:#e22727;}.cls-19{fill:#911a1a;}.cls-20{fill:#303030;}.cls-21{fill:#ffac33;stroke:#fff;stroke-width:6px;}.cls-21,.cls-22{stroke-miterlimit:10;}.cls-22{font-size:55px;stroke:#303030;stroke-width:3.39px;font-family:Bangers-Regular, Bangers;letter-spacing:0.01em;}.cls-23{fill:#565655;}</style></defs><title>SelectLevelPage</title><g id="background"><rect class="cls-1" x="0.13" y="0.12" width="719.82" height="1079.32"/></g><g id="background-2" data-name="background"><circle class="cls-2" cx="357.73" cy="863.05" r="78.55"/><path class="cls-3" d="M90.33,1039.84S16,1075.77.13,1079.44H719.95l-36.66-42L580.69,986.1l-265.64-11L164.83,995.26Z"/><path class="cls-4" d="M293.68,868.24a29.5,29.5,0,0,1-1.22,7.33c-1.22,4.27-195.41,160-202.13,164.27,0,0,72.06-36.64,75.72-36s-30.53,18.93-36.64,25-30.53,25.65-22,24.43,78.17-51.91,96.48-53.13-2.44,29.92,25,17.71,35.42-23.21,37.25-15.88-20.76,56.79-11.6,47.63,37.86-62.29,40.91-45.19-7.33,44,9.77,28.7,18.32-25.65,22-17.71,10.38,22,15.27,6.72,3.05-30.53,14-22,82.44,70.84,80,55-6.11-39.69,6.72-34.2,29.92,6.72,13.43-9.16,28.09,3.66,37.25,6.72,18.93,1.22,24.43,14.66,56.18,21.37,78.17,18.32,29.92.61,35.42,1.22-2.44-10.38-19.54-17.1-44.58-25-25-20.76,31.14,4.89,4.27-9.16,10.38-9.16,23.82,0,59.85,31.14,67.78,31.75S501.92,941.52,452.45,900s-31.14-39.69-42.14-35.42-19.54,26.26-27.48,15.27-14-13.43-25-9.77-33,7.94-38.47,3.05S294.9,860.91,293.68,868.24Z"/><polygon class="cls-5" points="199.84 1080.34 26.15 1080.34 26.15 1018.8 199.84 1012.68 199.84 1080.34"/><rect class="cls-6" x="194.25" y="984.99" width="332.42" height="7.58"/><rect class="cls-5" x="139.57" y="995.47" width="401.73" height="85.04"/><rect class="cls-7" x="363.04" y="828.33" width="3.65" height="330.02" transform="translate(1358.21 628.47) rotate(90)"/><polygon class="cls-5" points="521.15 1080.55 694.83 1080.55 694.83 1019 521.15 1012.88 521.15 1080.55"/><rect class="cls-7" x="616.67" y="952.72" width="2.74" height="154.56" transform="translate(1648.04 411.96) rotate(90)"/><rect class="cls-8" x="541.3" y="1024.04" width="4.77" height="56.47"/><rect class="cls-8" x="576.88" y="1024.04" width="4.77" height="56.47"/><rect class="cls-8" x="614.93" y="1024.04" width="4.77" height="56.47"/><rect class="cls-8" x="652.97" y="1024.04" width="4.77" height="56.47"/><rect class="cls-8" x="691.02" y="1024.04" width="4.77" height="56.47"/><rect class="cls-9" x="537.58" y="1018.36" width="159.46" height="5.64"/><polygon class="cls-10" points="526.73 985.19 526.73 1017.25 538.35 1019.6 526.73 985.19"/><path class="cls-11" d="M557.85,1019.6l140.72-.27s-25-11-25-34.14H526.83c0,28.16,11.21,34.41,11.21,34.41h19.81Z"/><rect class="cls-6" x="458.58" y="1055.5" width="65.63" height="25.04"/><rect class="cls-6" x="196.82" y="1055.5" width="65.63" height="25.04"/><rect class="cls-12" x="262.78" y="1055.5" width="35.82" height="25.04"/><rect class="cls-12" x="423.15" y="1055.5" width="35.82" height="25.04"/><rect class="cls-12" x="304.11" y="994.17" width="110.76" height="52.42"/><rect class="cls-13" x="358.43" y="979.55" width="2.57" height="111.24" transform="translate(1394.89 675.45) rotate(90)"/><rect class="cls-13" x="358.92" y="990.17" width="1.61" height="111.24" transform="translate(1405.52 686.08) rotate(90)"/><rect class="cls-13" x="358.43" y="968.44" width="2.57" height="111.24" transform="translate(1383.78 664.34) rotate(90)"/><rect class="cls-13" x="358.43" y="957.32" width="2.57" height="111.24" transform="translate(1372.66 653.23) rotate(90)"/><rect class="cls-13" x="358.29" y="946.37" width="2.57" height="110.92" transform="translate(1361.41 642.26) rotate(90)"/><rect class="cls-14" x="256.02" y="1005.93" width="6.45" height="49.41"/><rect class="cls-15" x="313.69" y="994.17" width="1.31" height="52.47"/><rect class="cls-15" x="308.9" y="994.17" width="1.31" height="52.47"/><rect class="cls-15" x="304.11" y="994.17" width="1.31" height="52.47"/><rect class="cls-15" x="318.47" y="994.17" width="1.31" height="52.47"/><rect class="cls-15" x="323.26" y="994.17" width="1.31" height="52.47"/><rect class="cls-15" x="328.05" y="994.17" width="1.31" height="52.47"/><rect class="cls-15" x="332.84" y="994.17" width="1.31" height="52.47"/><rect class="cls-15" x="337.62" y="994.17" width="1.31" height="52.47"/><rect class="cls-15" x="342.41" y="994.17" width="1.31" height="52.47"/><rect class="cls-15" x="347.2" y="994.17" width="1.31" height="52.47"/><rect class="cls-15" x="351.99" y="994.17" width="1.31" height="52.47"/><rect class="cls-15" x="356.77" y="994.17" width="1.31" height="52.47"/><rect class="cls-15" x="361.56" y="994.17" width="1.31" height="52.47"/><rect class="cls-15" x="366.35" y="994.17" width="1.31" height="52.47"/><rect class="cls-15" x="371.14" y="994.17" width="1.31" height="52.47"/><rect class="cls-15" x="375.92" y="994.17" width="1.31" height="52.47"/><rect class="cls-15" x="380.71" y="994.17" width="1.31" height="52.47"/><rect class="cls-15" x="385.5" y="994.17" width="1.31" height="52.47"/><rect class="cls-15" x="395.07" y="994.17" width="1.31" height="52.47"/><rect class="cls-15" x="390.28" y="994.17" width="1.31" height="52.47"/><rect class="cls-15" x="399.86" y="994.17" width="1.31" height="52.47"/><rect class="cls-15" x="404.65" y="994.17" width="1.31" height="52.47"/><rect class="cls-15" x="414.22" y="994.17" width="1.31" height="52.47"/><rect class="cls-15" x="409.43" y="994.17" width="1.31" height="52.47"/><rect class="cls-14" x="500.57" y="1005.93" width="6.45" height="49.57"/><rect class="cls-14" x="458.58" y="1005.93" width="6.45" height="49.57"/><rect class="cls-8" x="259.29" y="982.38" width="6.45" height="98.12"/><rect class="cls-14" x="214.64" y="1005.93" width="6.45" height="49.41"/><rect class="cls-8" x="455.18" y="982.38" width="6.45" height="98.12"/><rect class="cls-8" x="520.48" y="982.38" width="6.45" height="98.12"/><rect class="cls-8" x="539.09" y="1021.59" width="4.77" height="56.47"/><rect class="cls-16" x="167.01" y="910.17" width="385.06" height="8.19"/><path class="cls-11" d="M351.56,976.38l238.72-.46s-42.4-18.59-42.4-57.91h-377c0,39.33-42.4,58.22-42.4,58.22l222.74.15h.31Z"/><rect class="cls-7" x="101.57" y="952.52" width="2.74" height="154.56" transform="translate(1132.74 926.86) rotate(90)"/><rect class="cls-8" x="174.91" y="1023.84" width="4.77" height="56.47" transform="translate(354.6 2104.15) rotate(-180)"/><rect class="cls-8" x="139.33" y="1023.84" width="4.77" height="56.47" transform="translate(283.42 2104.15) rotate(-180)"/><rect class="cls-8" x="101.28" y="1023.84" width="4.77" height="56.47" transform="translate(207.33 2104.15) rotate(-180)"/><rect class="cls-8" x="63.24" y="1023.84" width="4.77" height="56.47" transform="translate(131.24 2104.15) rotate(-180)"/><rect class="cls-8" x="25.19" y="1023.84" width="4.77" height="56.47" transform="translate(55.15 2104.15) rotate(-180)"/><rect class="cls-9" x="23.94" y="1018.15" width="159.46" height="5.64" transform="translate(207.34 2041.94) rotate(-180)"/><polygon class="cls-10" points="194.25 984.99 194.25 1017.04 182.63 1019.4 194.25 984.99"/><path class="cls-11" d="M163.13,1019.4l-140.72-.27s25-11,25-34.14H194.15c0,28.16-11.21,34.41-11.21,34.41H163.13Z"/><rect class="cls-14" x="298.21" y="1005.93" width="6.45" height="50.91"/><rect class="cls-14" x="415.37" y="1005.93" width="6.45" height="50.91"/><rect class="cls-6" x="282.54" y="1072.51" width="157.14" height="8.09"/><rect class="cls-6" x="296.61" y="1055.36" width="127.77" height="8.79"/><rect class="cls-17" x="289.49" y="1063.97" width="142.02" height="8.64"/><rect class="cls-17" x="304.42" y="1046.77" width="112.17" height="8.64"/><rect class="cls-8" x="324.59" y="982.38" width="6.45" height="98.12"/><rect class="cls-8" x="389.89" y="982.38" width="6.45" height="98.12"/><rect class="cls-8" x="194" y="982.38" width="6.45" height="98.12"/><rect class="cls-9" x="132.85" y="976.28" width="453.33" height="8.82"/></g><g id="pillar"><rect class="cls-18" x="138.73" y="173.99" width="38.78" height="823.9" transform="translate(316.25 1171.89) rotate(180)"/><rect class="cls-19" x="126.51" y="166.69" width="63.22" height="10.87"/><rect class="cls-19" x="125.43" y="997.82" width="65.39" height="82.49"/><rect class="cls-18" x="543.05" y="173.99" width="38.78" height="823.84" transform="translate(1124.88 1171.83) rotate(180)"/><rect class="cls-19" x="530.83" y="166.69" width="63.22" height="10.87"/><rect class="cls-19" x="529.74" y="997.82" width="65.39" height="82.49"/><rect class="cls-18" x="101.13" y="157.2" width="517.53" height="9.52"/><rect class="cls-18" x="115.07" y="200.65" width="491.85" height="13.71"/><rect class="cls-18" x="339.31" y="175.87" width="41.16" height="13.03" transform="translate(542.27 -177.51) rotate(90)"/><path class="cls-20" d="M675.59,71s-143,64.35-315.7,64.51C187.19,135.35,44.19,71,44.19,71,30.4,94.81,51.08,97.88,51.08,97.88c47.56,20,18.61,47.62,18.61,47.62v13.06H650.09V145.5s-28.95-27.65,18.61-47.62C668.7,97.88,689.38,94.81,675.59,71Z"/></g></svg>